<svg xmlns="http://www.w3.org/2000/svg" xmlns:xlink="http://www.w3.org/1999/xlink" width="2000" zoomAndPan="magnify" viewBox="0 0 1500 1499.999933" height="2000" preserveAspectRatio="xMidYMid meet" version="1.0"><defs><g/><clipPath id="188df5b561"><path d="M 489.113281 417.066406 L 949 417.066406 L 949 932.316406 L 489.113281 932.316406 Z M 489.113281 417.066406 " clip-rule="nonzero"/></clipPath><clipPath id="ce8e1a8e58"><path d="M 620 449 L 1000.613281 449 L 1000.613281 900 L 620 900 Z M 620 449 " clip-rule="nonzero"/></clipPath></defs><g clip-path="url(#188df5b561)"><path fill="#13800f" d="M 746.730469 417.113281 C 815.167969 417.113281 877.355469 443.808594 923.488281 487.339844 C 882.199219 453.582031 829.441406 433.320312 771.945312 433.320312 C 639.621094 433.320312 532.347656 540.589844 532.347656 672.917969 C 532.347656 805.242188 639.621094 912.515625 771.945312 912.515625 C 841.859375 912.515625 904.773438 882.5625 948.574219 834.796875 C 901.386719 894.226562 828.511719 932.34375 746.730469 932.34375 C 604.453125 932.34375 489.113281 817 489.113281 674.726562 C 489.113281 532.449219 604.453125 417.113281 746.730469 417.113281 " fill-opacity="1" fill-rule="evenodd"/></g><path fill="#13800f" d="M 720.285156 879.988281 C 672.550781 872.417969 630.1875 848.71875 598.945312 814.648438 C 629.425781 853.039062 672.171875 881.25 721.253906 893.363281 C 720.605469 888.917969 720.292969 884.445312 720.285156 879.988281 " fill-opacity="1" fill-rule="evenodd"/><g clip-path="url(#ce8e1a8e58)"><path fill="#13800f" d="M 775.386719 449.535156 C 715.5625 449.535156 661.199219 472.867188 620.875 510.925781 C 656.96875 481.414062 703.085938 463.703125 753.34375 463.703125 C 869.015625 463.703125 962.789062 557.472656 962.789062 673.144531 C 962.789062 788.816406 869.015625 882.585938 753.34375 882.585938 C 752.335938 882.585938 751.332031 882.578125 750.328125 882.5625 C 747.773438 887.429688 745.332031 892.4375 743.011719 897.605469 C 753.582031 899.128906 764.394531 899.917969 775.390625 899.917969 C 899.761719 899.917969 1000.582031 799.09375 1000.582031 674.726562 C 1000.578125 550.355469 899.757812 449.535156 775.386719 449.535156 " fill-opacity="1" fill-rule="evenodd"/></g><path fill="#ffb81c" d="M 731.945312 899.917969 C 719.242188 849.648438 756.367188 780.25 844.296875 713.851562 C 786.808594 738.453125 745.445312 784.558594 714.109375 844.039062 C 717.675781 690.074219 861.835938 678.773438 920.984375 581.878906 C 937.035156 761.609375 795.546875 749.324219 731.945312 899.917969 " fill-opacity="1" fill-rule="evenodd"/><path fill="#ffb81c" d="M 706.550781 806.332031 C 689.941406 783.589844 666.363281 760.050781 635.734375 736.921875 C 664.839844 749.378906 689.230469 768.128906 709.929688 791.796875 C 712.851562 781.160156 716.671875 770.976562 721.445312 761.1875 C 680.445312 704.292969 605.535156 681.898438 568.554688 621.316406 C 556.765625 753.308594 641.96875 767.09375 702.652344 845.828125 L 702.699219 843.777344 C 703.003906 830.671875 704.269531 818.21875 706.550781 806.332031 " fill-opacity="1" fill-rule="evenodd"/><path fill="#13800f" d="M 686.652344 579.488281 C 687.039062 577.566406 687.433594 575.664062 687.839844 573.78125 L 687.847656 573.78125 L 687.847656 579.488281 Z M 685.058594 587.886719 C 685.40625 585.964844 685.761719 584.0625 686.125 582.175781 L 687.847656 582.175781 L 687.847656 587.886719 Z M 683.632812 596.28125 C 683.945312 594.359375 684.261719 592.457031 684.585938 590.570312 L 687.847656 590.570312 L 687.847656 596.28125 Z M 682.363281 604.675781 C 682.632812 602.753906 682.921875 600.851562 683.214844 598.964844 L 687.847656 598.964844 L 687.847656 604.675781 Z M 681.550781 613.070312 L 681.550781 610.636719 L 681.988281 607.359375 L 687.847656 607.359375 L 687.847656 613.070312 Z M 681.550781 621.464844 L 681.550781 615.753906 L 687.847656 615.753906 L 687.847656 621.464844 Z M 681.550781 629.863281 L 681.550781 624.148438 L 687.847656 624.148438 L 687.847656 629.863281 Z M 681.550781 638.257812 L 681.550781 632.546875 L 687.847656 632.546875 L 687.847656 638.257812 Z M 681.550781 646.648438 L 681.550781 640.941406 L 687.847656 640.941406 L 687.847656 646.648438 Z M 681.550781 655.046875 L 681.550781 649.335938 L 687.847656 649.335938 L 687.847656 655.046875 Z M 681.550781 663.441406 L 681.550781 657.730469 L 687.847656 657.730469 L 687.847656 663.441406 Z M 681.550781 671.835938 L 681.550781 666.125 L 687.847656 666.125 L 687.847656 671.835938 Z M 681.550781 680.230469 L 681.550781 674.519531 L 687.847656 674.519531 L 687.847656 680.230469 Z M 681.550781 688.625 L 681.550781 682.914062 L 687.847656 682.914062 L 687.847656 688.625 Z M 681.550781 697.019531 L 681.550781 691.308594 L 687.847656 691.308594 L 687.847656 697.019531 Z M 681.550781 701.109375 L 681.550781 699.707031 L 687.847656 699.707031 L 687.847656 705.414062 L 687.210938 705.414062 C 685.332031 703.964844 683.449219 702.53125 681.550781 701.109375 Z M 695.027344 545.914062 C 695.625 543.972656 696.230469 542.066406 696.847656 540.203125 L 697.105469 540.203125 L 697.105469 545.914062 Z M 692.589844 554.304688 C 693.117188 552.367188 693.664062 550.464844 694.21875 548.59375 L 697.097656 548.59375 L 697.097656 554.304688 Z M 690.808594 562.703125 L 690.808594 561.066406 C 691.148438 559.695312 691.507812 558.332031 691.863281 556.988281 L 697.101562 556.988281 L 697.101562 562.699219 L 690.808594 562.699219 Z M 690.808594 571.097656 L 690.808594 565.386719 L 697.101562 565.386719 L 697.101562 571.097656 Z M 690.808594 579.488281 L 690.808594 573.78125 L 697.101562 573.78125 L 697.101562 579.488281 Z M 690.808594 587.886719 L 690.808594 582.175781 L 697.101562 582.175781 L 697.101562 587.886719 Z M 690.808594 596.28125 L 690.808594 590.570312 L 697.101562 590.570312 L 697.101562 596.28125 Z M 690.808594 604.675781 L 690.808594 598.964844 L 697.101562 598.964844 L 697.101562 604.675781 Z M 690.808594 613.070312 L 690.808594 607.359375 L 697.101562 607.359375 L 697.101562 613.070312 Z M 690.808594 621.464844 L 690.808594 615.753906 L 697.101562 615.753906 L 697.101562 621.464844 Z M 690.808594 629.863281 L 690.808594 624.148438 L 697.101562 624.148438 L 697.101562 629.863281 Z M 690.808594 638.257812 L 690.808594 632.546875 L 697.101562 632.546875 L 697.101562 638.257812 Z M 690.808594 646.648438 L 690.808594 640.941406 L 697.101562 640.941406 L 697.101562 646.648438 Z M 690.808594 655.046875 L 690.808594 649.335938 L 697.101562 649.335938 L 697.101562 655.046875 Z M 690.808594 663.441406 L 690.808594 657.730469 L 697.101562 657.730469 L 697.101562 663.441406 Z M 690.808594 671.835938 L 690.808594 666.125 L 697.101562 666.125 L 697.101562 671.835938 Z M 690.808594 680.230469 L 690.808594 674.519531 L 697.101562 674.519531 L 697.101562 680.230469 Z M 690.808594 688.625 L 690.808594 682.914062 L 697.101562 682.914062 L 697.101562 688.625 Z M 690.808594 697.019531 L 690.808594 691.308594 L 697.101562 691.308594 L 697.101562 697.019531 Z M 690.808594 705.414062 L 690.808594 699.707031 L 697.101562 699.707031 L 697.101562 705.414062 Z M 690.808594 708.226562 L 690.808594 708.097656 L 697.101562 708.097656 L 697.101562 713.328125 C 695.019531 711.601562 692.925781 709.902344 690.808594 708.226562 Z M 704.296875 520.726562 C 704.976562 519.203125 705.65625 517.71875 706.355469 516.269531 L 706.355469 520.726562 Z M 700.8125 529.121094 C 701.574219 527.167969 702.347656 525.261719 703.132812 523.410156 L 706.351562 523.410156 L 706.351562 529.121094 Z M 700.058594 537.519531 L 700.058594 531.804688 L 706.355469 531.804688 L 706.355469 537.519531 Z M 700.058594 545.914062 L 700.058594 540.203125 L 706.355469 540.203125 L 706.355469 545.914062 Z M 700.058594 554.304688 L 700.058594 548.59375 L 706.355469 548.59375 L 706.355469 554.304688 Z M 700.058594 562.703125 L 700.058594 556.988281 L 706.355469 556.988281 L 706.355469 562.703125 Z M 700.058594 571.097656 L 700.058594 565.386719 L 706.355469 565.386719 L 706.355469 571.097656 Z M 700.058594 579.488281 L 700.058594 573.78125 L 706.355469 573.78125 L 706.355469 579.488281 Z M 700.058594 587.886719 L 700.058594 582.175781 L 706.355469 582.175781 L 706.355469 587.886719 Z M 700.058594 596.28125 L 700.058594 590.570312 L 706.355469 590.570312 L 706.355469 596.28125 Z M 700.058594 604.675781 L 700.058594 598.964844 L 706.355469 598.964844 L 706.355469 604.675781 Z M 700.058594 613.070312 L 700.058594 607.359375 L 706.355469 607.359375 L 706.355469 613.070312 Z M 700.058594 621.464844 L 700.058594 615.753906 L 706.355469 615.753906 L 706.355469 621.464844 Z M 700.058594 629.863281 L 700.058594 624.148438 L 706.355469 624.148438 L 706.355469 629.863281 Z M 700.058594 638.257812 L 700.058594 632.546875 L 706.355469 632.546875 L 706.355469 638.257812 Z M 700.058594 646.648438 L 700.058594 640.941406 L 706.355469 640.941406 L 706.355469 646.648438 Z M 700.058594 655.046875 L 700.058594 649.335938 L 706.355469 649.335938 L 706.355469 655.046875 Z M 700.058594 663.441406 L 700.058594 657.730469 L 706.355469 657.730469 L 706.355469 663.441406 Z M 700.058594 671.835938 L 700.058594 666.125 L 706.355469 666.125 L 706.355469 671.835938 Z M 700.058594 680.230469 L 700.058594 674.519531 L 706.355469 674.519531 L 706.355469 680.230469 Z M 700.058594 688.625 L 700.058594 682.914062 L 706.355469 682.914062 L 706.355469 688.625 Z M 700.058594 697.019531 L 700.058594 691.308594 L 706.355469 691.308594 L 706.355469 697.019531 Z M 700.058594 705.414062 L 700.058594 699.707031 L 706.355469 699.707031 L 706.355469 705.414062 Z M 700.058594 713.808594 L 700.058594 708.097656 L 706.355469 708.097656 L 706.355469 713.808594 Z M 700.84375 716.492188 L 706.355469 716.492188 L 706.355469 721.359375 C 704.535156 719.707031 702.703125 718.089844 700.84375 716.492188 Z M 713.066406 503.933594 C 713.90625 502.59375 714.75 501.304688 715.609375 500.0625 L 715.609375 503.933594 Z M 709.3125 512.328125 L 709.3125 510.433594 C 710.015625 509.125 710.726562 507.855469 711.445312 506.617188 L 715.609375 506.617188 L 715.609375 512.328125 Z M 709.3125 520.726562 L 709.3125 515.019531 L 715.609375 515.019531 L 715.609375 520.726562 Z M 709.3125 529.121094 L 709.3125 523.410156 L 715.609375 523.410156 L 715.609375 529.121094 Z M 709.3125 537.519531 L 709.3125 531.804688 L 715.609375 531.804688 L 715.609375 537.519531 Z M 709.3125 545.914062 L 709.3125 540.203125 L 715.609375 540.203125 L 715.609375 545.914062 Z M 709.3125 554.304688 L 709.3125 548.59375 L 715.609375 548.59375 L 715.609375 554.304688 Z M 709.3125 562.703125 L 709.3125 556.988281 L 715.609375 556.988281 L 715.609375 562.703125 Z M 709.3125 571.097656 L 709.3125 565.386719 L 715.609375 565.386719 L 715.609375 571.097656 Z M 709.3125 579.488281 L 709.3125 573.78125 L 715.609375 573.78125 L 715.609375 579.488281 Z M 709.3125 587.886719 L 709.3125 582.175781 L 715.609375 582.175781 L 715.609375 587.886719 Z M 709.3125 596.28125 L 709.3125 590.570312 L 715.609375 590.570312 L 715.609375 596.28125 Z M 709.3125 604.675781 L 709.3125 598.964844 L 715.609375 598.964844 L 715.609375 604.675781 Z M 709.3125 613.070312 L 709.3125 607.359375 L 715.609375 607.359375 L 715.609375 613.070312 Z M 709.3125 621.464844 L 709.3125 615.753906 L 715.609375 615.753906 L 715.609375 621.464844 Z M 709.3125 629.863281 L 709.3125 624.148438 L 715.609375 624.148438 L 715.609375 629.863281 Z M 709.3125 638.257812 L 709.3125 632.546875 L 715.609375 632.546875 L 715.609375 638.257812 Z M 709.3125 646.648438 L 709.3125 640.941406 L 715.609375 640.941406 L 715.609375 646.648438 Z M 709.3125 655.046875 L 709.3125 649.335938 L 715.609375 649.335938 L 715.609375 655.046875 Z M 709.3125 663.441406 L 709.3125 657.730469 L 715.609375 657.730469 L 715.609375 663.441406 Z M 709.3125 671.835938 L 709.3125 666.125 L 715.609375 666.125 L 715.609375 671.835938 Z M 709.3125 680.230469 L 709.3125 674.519531 L 715.609375 674.519531 L 715.609375 680.230469 Z M 709.3125 688.625 L 709.3125 682.914062 L 715.609375 682.914062 L 715.609375 688.625 Z M 709.3125 697.019531 L 709.3125 691.308594 L 715.609375 691.308594 L 715.609375 697.019531 Z M 709.3125 705.414062 L 709.3125 699.707031 L 715.609375 699.707031 L 715.609375 705.414062 Z M 709.3125 713.808594 L 709.3125 708.097656 L 715.609375 708.097656 L 715.609375 713.808594 Z M 709.3125 722.207031 L 709.3125 716.492188 L 715.609375 716.492188 L 715.609375 722.207031 Z M 710.160156 724.890625 L 715.609375 724.890625 L 715.609375 730.238281 C 713.820312 728.417969 712.003906 726.636719 710.160156 724.890625 Z M 718.96875 495.542969 C 720.65625 493.433594 722.378906 491.53125 724.128906 489.828125 L 724.855469 489.828125 L 724.855469 495.542969 Z M 718.566406 503.933594 L 718.566406 498.222656 L 724.859375 498.222656 L 724.859375 503.933594 Z M 718.566406 512.328125 L 718.566406 506.617188 L 724.859375 506.617188 L 724.859375 512.328125 Z M 718.566406 520.726562 L 718.566406 515.019531 L 724.859375 515.019531 L 724.859375 520.726562 Z M 718.566406 529.121094 L 718.566406 523.410156 L 724.859375 523.410156 L 724.859375 529.121094 Z M 718.566406 537.519531 L 718.566406 531.804688 L 724.859375 531.804688 L 724.859375 537.519531 Z M 718.566406 545.914062 L 718.566406 540.203125 L 724.859375 540.203125 L 724.859375 545.914062 Z M 718.566406 554.304688 L 718.566406 548.59375 L 724.859375 548.59375 L 724.859375 554.304688 Z M 718.566406 562.703125 L 718.566406 556.988281 L 724.859375 556.988281 L 724.859375 562.703125 Z M 718.566406 571.097656 L 718.566406 565.386719 L 724.859375 565.386719 L 724.859375 571.097656 Z M 718.566406 579.488281 L 718.566406 573.78125 L 724.859375 573.78125 L 724.859375 579.488281 Z M 718.566406 587.886719 L 718.566406 582.175781 L 724.859375 582.175781 L 724.859375 587.886719 Z M 718.566406 596.28125 L 718.566406 590.570312 L 724.859375 590.570312 L 724.859375 596.28125 Z M 718.566406 604.675781 L 718.566406 598.964844 L 724.859375 598.964844 L 724.859375 604.675781 Z M 718.566406 613.070312 L 718.566406 607.359375 L 724.859375 607.359375 L 724.859375 613.070312 Z M 718.566406 621.464844 L 718.566406 615.753906 L 724.859375 615.753906 L 724.859375 621.464844 Z M 718.566406 629.863281 L 718.566406 624.148438 L 724.859375 624.148438 L 724.859375 629.863281 Z M 718.566406 638.257812 L 718.566406 632.546875 L 724.859375 632.546875 L 724.859375 638.257812 Z M 718.566406 646.648438 L 718.566406 640.941406 L 724.859375 640.941406 L 724.859375 646.648438 Z M 718.566406 655.046875 L 718.566406 649.335938 L 724.859375 649.335938 L 724.859375 655.046875 Z M 718.566406 663.441406 L 718.566406 657.730469 L 724.859375 657.730469 L 724.859375 663.441406 Z M 718.566406 671.835938 L 718.566406 666.125 L 724.859375 666.125 L 724.859375 671.835938 Z M 718.566406 680.230469 L 718.566406 674.519531 L 724.859375 674.519531 L 724.859375 680.230469 Z M 718.566406 688.625 L 718.566406 682.914062 L 724.859375 682.914062 L 724.859375 688.625 Z M 718.566406 697.019531 L 718.566406 691.308594 L 724.859375 691.308594 L 724.859375 697.019531 Z M 718.566406 705.414062 L 718.566406 699.707031 L 724.859375 699.707031 L 724.859375 705.414062 Z M 718.566406 713.808594 L 718.566406 708.097656 L 724.859375 708.097656 L 724.859375 713.808594 Z M 718.566406 722.207031 L 718.566406 716.492188 L 724.859375 716.492188 L 724.859375 722.207031 Z M 718.566406 730.601562 L 718.566406 724.890625 L 724.859375 724.890625 L 724.859375 730.601562 Z M 718.566406 733.296875 L 718.566406 733.285156 L 724.859375 733.285156 L 724.859375 738.996094 L 723.742188 738.996094 C 722.050781 737.050781 720.320312 735.15625 718.566406 733.296875 Z M 727.820312 487.144531 L 727.820312 486.605469 C 729.878906 484.992188 731.984375 483.671875 734.113281 482.652344 L 734.113281 487.144531 Z M 727.820312 495.542969 L 727.820312 489.828125 L 734.113281 489.828125 L 734.113281 495.542969 Z M 727.820312 503.933594 L 727.820312 498.222656 L 734.113281 498.222656 L 734.113281 503.933594 Z M 727.820312 512.328125 L 727.820312 506.617188 L 734.113281 506.617188 L 734.113281 512.328125 Z M 727.820312 520.726562 L 727.820312 515.019531 L 734.113281 515.019531 L 734.113281 520.726562 Z M 727.820312 529.121094 L 727.820312 523.410156 L 734.113281 523.410156 L 734.113281 529.121094 Z M 727.820312 537.519531 L 727.820312 531.804688 L 734.113281 531.804688 L 734.113281 537.519531 Z M 727.820312 545.914062 L 727.820312 540.203125 L 734.113281 540.203125 L 734.113281 545.914062 Z M 727.820312 554.304688 L 727.820312 548.59375 L 734.113281 548.59375 L 734.113281 554.304688 Z M 727.820312 562.703125 L 727.820312 556.988281 L 734.113281 556.988281 L 734.113281 562.703125 Z M 727.820312 571.097656 L 727.820312 565.386719 L 734.113281 565.386719 L 734.113281 571.097656 Z M 727.820312 579.488281 L 727.820312 573.78125 L 734.113281 573.78125 L 734.113281 579.488281 Z M 727.820312 587.886719 L 727.820312 582.175781 L 734.113281 582.175781 L 734.113281 587.886719 Z M 727.820312 596.28125 L 727.820312 590.570312 L 734.113281 590.570312 L 734.113281 596.28125 Z M 727.820312 604.675781 L 727.820312 598.964844 L 734.113281 598.964844 L 734.113281 604.675781 Z M 727.820312 613.070312 L 727.820312 607.359375 L 734.113281 607.359375 L 734.113281 613.070312 Z M 727.820312 621.464844 L 727.820312 615.753906 L 734.113281 615.753906 L 734.113281 621.464844 Z M 727.820312 629.863281 L 727.820312 624.148438 L 734.113281 624.148438 L 734.113281 629.863281 Z M 727.820312 638.257812 L 727.820312 632.546875 L 734.113281 632.546875 L 734.113281 638.257812 Z M 727.820312 646.648438 L 727.820312 640.941406 L 734.113281 640.941406 L 734.113281 646.648438 Z M 727.820312 655.046875 L 727.820312 649.335938 L 734.113281 649.335938 L 734.113281 655.046875 Z M 727.820312 663.441406 L 727.820312 657.730469 L 734.113281 657.730469 L 734.113281 663.441406 Z M 727.820312 671.835938 L 727.820312 666.125 L 734.113281 666.125 L 734.113281 671.835938 Z M 727.820312 680.230469 L 727.820312 674.519531 L 734.113281 674.519531 L 734.113281 680.230469 Z M 727.820312 688.625 L 727.820312 682.914062 L 734.113281 682.914062 L 734.113281 688.625 Z M 727.820312 697.019531 L 727.820312 691.308594 L 734.113281 691.308594 L 734.113281 697.019531 Z M 727.820312 705.414062 L 727.820312 699.707031 L 734.113281 699.707031 L 734.113281 705.414062 Z M 727.820312 713.808594 L 727.820312 708.097656 L 734.113281 708.097656 L 734.113281 713.808594 Z M 727.820312 722.207031 L 727.820312 716.492188 L 734.113281 716.492188 L 734.113281 722.207031 Z M 727.820312 730.601562 L 727.820312 724.890625 L 734.113281 724.890625 L 734.113281 730.601562 Z M 727.820312 738.996094 L 727.820312 733.285156 L 733.179688 733.285156 C 731.832031 735.175781 730.527344 737.078125 729.265625 738.996094 Z M 737.070312 487.144531 L 737.070312 481.4375 C 739.144531 480.722656 741.242188 480.289062 743.367188 480.144531 L 743.367188 487.144531 Z M 737.070312 495.542969 L 737.070312 489.828125 L 743.367188 489.828125 L 743.367188 495.542969 Z M 737.070312 503.933594 L 737.070312 498.222656 L 743.367188 498.222656 L 743.367188 503.933594 Z M 737.070312 512.328125 L 737.070312 506.617188 L 743.367188 506.617188 L 743.367188 512.328125 Z M 737.070312 520.726562 L 737.070312 515.019531 L 743.367188 515.019531 L 743.367188 520.726562 Z M 737.070312 529.121094 L 737.070312 523.410156 L 743.367188 523.410156 L 743.367188 529.121094 Z M 737.070312 537.519531 L 737.070312 531.804688 L 743.367188 531.804688 L 743.367188 537.519531 Z M 737.070312 545.914062 L 737.070312 540.203125 L 743.367188 540.203125 L 743.367188 545.914062 Z M 737.070312 554.304688 L 737.070312 548.59375 L 743.367188 548.59375 L 743.367188 554.304688 Z M 737.070312 562.703125 L 737.070312 556.988281 L 743.367188 556.988281 L 743.367188 562.703125 Z M 737.070312 571.097656 L 737.070312 565.386719 L 743.367188 565.386719 L 743.367188 571.097656 Z M 737.070312 579.488281 L 737.070312 573.78125 L 743.367188 573.78125 L 743.367188 579.488281 Z M 737.070312 587.886719 L 737.070312 582.175781 L 743.367188 582.175781 L 743.367188 587.886719 Z M 737.070312 596.28125 L 737.070312 590.570312 L 743.367188 590.570312 L 743.367188 596.28125 Z M 737.070312 604.675781 L 737.070312 598.964844 L 743.367188 598.964844 L 743.367188 604.675781 Z M 737.070312 613.070312 L 737.070312 607.359375 L 743.367188 607.359375 L 743.367188 613.070312 Z M 737.070312 621.464844 L 737.070312 615.753906 L 743.367188 615.753906 L 743.367188 621.464844 Z M 737.070312 629.863281 L 737.070312 624.148438 L 743.367188 624.148438 L 743.367188 629.863281 Z M 737.070312 638.257812 L 737.070312 632.546875 L 743.367188 632.546875 L 743.367188 638.257812 Z M 737.070312 646.648438 L 737.070312 640.941406 L 743.367188 640.941406 L 743.367188 646.648438 Z M 737.070312 655.046875 L 737.070312 649.335938 L 743.367188 649.335938 L 743.367188 655.046875 Z M 737.070312 663.441406 L 737.070312 657.730469 L 743.367188 657.730469 L 743.367188 663.441406 Z M 737.070312 671.835938 L 737.070312 666.125 L 743.367188 666.125 L 743.367188 671.835938 Z M 737.070312 680.230469 L 737.070312 674.519531 L 743.367188 674.519531 L 743.367188 680.230469 Z M 737.070312 688.625 L 737.070312 682.914062 L 743.367188 682.914062 L 743.367188 688.625 Z M 737.070312 697.019531 L 737.070312 691.308594 L 743.367188 691.308594 L 743.367188 697.019531 Z M 737.070312 705.414062 L 737.070312 699.707031 L 743.367188 699.707031 L 743.367188 705.414062 Z M 737.070312 713.808594 L 737.070312 708.097656 L 743.367188 708.097656 L 743.367188 713.808594 Z M 737.070312 722.207031 L 737.070312 716.492188 L 743.367188 716.492188 L 743.367188 720.160156 L 741.667969 722.207031 Z M 737.070312 728.007812 L 737.070312 724.890625 L 739.5 724.890625 C 738.675781 725.925781 737.867188 726.964844 737.070312 728.007812 Z M 801.847656 668.449219 L 801.847656 666.125 L 805.050781 666.125 Z M 808.140625 657.730469 L 808.140625 663.441406 L 801.847656 663.441406 L 801.847656 657.730469 Z M 808.140625 649.335938 L 808.140625 655.046875 L 801.847656 655.046875 L 801.847656 649.335938 Z M 808.140625 640.941406 L 808.140625 646.648438 L 801.847656 646.648438 L 801.847656 640.941406 Z M 808.140625 632.546875 L 808.140625 638.257812 L 801.847656 638.257812 L 801.847656 632.546875 Z M 808.140625 624.148438 L 808.140625 629.863281 L 801.847656 629.863281 L 801.847656 624.148438 Z M 808.140625 615.753906 L 808.140625 621.464844 L 801.847656 621.464844 L 801.847656 615.753906 Z M 807.703125 607.359375 L 808.140625 610.636719 L 808.140625 613.070312 L 801.847656 613.070312 L 801.847656 607.359375 Z M 806.480469 598.964844 C 806.769531 600.851562 807.054688 602.753906 807.328125 604.675781 L 801.847656 604.675781 L 801.847656 598.964844 Z M 805.109375 590.570312 C 805.433594 592.453125 805.75 594.359375 806.0625 596.28125 L 801.847656 596.28125 L 801.847656 590.570312 Z M 803.570312 582.175781 C 803.929688 584.0625 804.289062 585.964844 804.632812 587.886719 L 801.847656 587.886719 L 801.847656 582.175781 Z M 801.855469 573.78125 C 802.261719 575.664062 802.652344 577.566406 803.039062 579.488281 L 801.847656 579.488281 L 801.847656 573.78125 Z M 792.589844 675.285156 L 792.589844 674.515625 L 793.609375 674.515625 Z M 798.886719 666.125 L 798.886719 670.613281 L 797.222656 671.839844 L 792.589844 671.839844 L 792.589844 666.125 Z M 798.886719 657.730469 L 798.886719 663.441406 L 792.589844 663.441406 L 792.589844 657.730469 Z M 798.886719 649.335938 L 798.886719 655.046875 L 792.589844 655.046875 L 792.589844 649.335938 Z M 798.886719 640.941406 L 798.886719 646.648438 L 792.589844 646.648438 L 792.589844 640.941406 Z M 798.886719 632.546875 L 798.886719 638.257812 L 792.589844 638.257812 L 792.589844 632.546875 Z M 798.886719 624.148438 L 798.886719 629.863281 L 792.589844 629.863281 L 792.589844 624.148438 Z M 798.886719 615.753906 L 798.886719 621.464844 L 792.589844 621.464844 L 792.589844 615.753906 Z M 798.886719 607.359375 L 798.886719 613.070312 L 792.589844 613.070312 L 792.589844 607.359375 Z M 798.886719 598.964844 L 798.886719 604.675781 L 792.589844 604.675781 L 792.589844 598.964844 Z M 798.886719 590.570312 L 798.886719 596.28125 L 792.589844 596.28125 L 792.589844 590.570312 Z M 798.886719 582.175781 L 798.886719 587.886719 L 792.589844 587.886719 L 792.589844 582.175781 Z M 798.886719 573.78125 L 798.886719 579.488281 L 792.589844 579.488281 L 792.589844 573.78125 Z M 798.886719 565.382812 L 798.886719 571.09375 L 792.589844 571.09375 L 792.589844 565.382812 Z M 797.832031 556.988281 C 798.1875 558.335938 798.542969 559.695312 798.886719 561.070312 L 798.886719 562.703125 L 792.589844 562.703125 L 792.589844 556.992188 L 797.832031 556.992188 Z M 795.472656 548.59375 C 796.027344 550.46875 796.574219 552.371094 797.101562 554.304688 L 792.589844 554.304688 L 792.589844 548.59375 Z M 792.847656 540.203125 C 793.464844 542.070312 794.070312 543.972656 794.667969 545.914062 L 792.59375 545.914062 L 792.59375 540.203125 Z M 789.636719 674.519531 L 789.636719 677.523438 L 786.101562 680.234375 L 783.339844 680.234375 L 783.339844 674.523438 L 789.636719 674.523438 Z M 789.636719 666.125 L 789.636719 671.835938 L 783.339844 671.835938 L 783.339844 666.125 Z M 789.636719 657.730469 L 789.636719 663.441406 L 783.339844 663.441406 L 783.339844 657.730469 Z M 789.636719 649.335938 L 789.636719 655.046875 L 783.339844 655.046875 L 783.339844 649.335938 Z M 789.636719 640.941406 L 789.636719 646.648438 L 783.339844 646.648438 L 783.339844 640.941406 Z M 789.636719 632.546875 L 789.636719 638.257812 L 783.339844 638.257812 L 783.339844 632.546875 Z M 789.636719 624.148438 L 789.636719 629.863281 L 783.339844 629.863281 L 783.339844 624.148438 Z M 789.636719 615.753906 L 789.636719 621.464844 L 783.339844 621.464844 L 783.339844 615.753906 Z M 789.636719 607.359375 L 789.636719 613.070312 L 783.339844 613.070312 L 783.339844 607.359375 Z M 789.636719 598.964844 L 789.636719 604.675781 L 783.339844 604.675781 L 783.339844 598.964844 Z M 789.636719 590.570312 L 789.636719 596.28125 L 783.339844 596.28125 L 783.339844 590.570312 Z M 789.636719 582.175781 L 789.636719 587.886719 L 783.339844 587.886719 L 783.339844 582.175781 Z M 789.636719 573.78125 L 789.636719 579.488281 L 783.339844 579.488281 L 783.339844 573.78125 Z M 789.636719 565.382812 L 789.636719 571.09375 L 783.339844 571.09375 L 783.339844 565.382812 Z M 789.636719 556.988281 L 789.636719 562.703125 L 783.339844 562.703125 L 783.339844 556.988281 Z M 789.636719 548.59375 L 789.636719 554.304688 L 783.339844 554.304688 L 783.339844 548.59375 Z M 789.636719 540.203125 L 789.636719 545.914062 L 783.339844 545.914062 L 783.339844 540.203125 Z M 789.636719 531.804688 L 789.636719 537.519531 L 783.339844 537.519531 L 783.339844 531.804688 Z M 786.558594 523.414062 C 787.34375 525.265625 788.117188 527.167969 788.878906 529.121094 L 783.335938 529.121094 L 783.335938 523.414062 Z M 783.339844 516.269531 C 784.03125 517.71875 784.71875 519.203125 785.394531 520.726562 L 783.339844 520.726562 Z M 780.378906 682.914062 L 780.378906 684.738281 C 778.777344 686.023438 777.1875 687.320312 775.609375 688.625 L 774.082031 688.625 L 774.082031 682.914062 Z M 780.378906 674.519531 L 780.378906 680.230469 L 774.082031 680.230469 L 774.082031 674.519531 Z M 780.378906 666.125 L 780.378906 671.835938 L 774.082031 671.835938 L 774.082031 666.125 Z M 780.378906 657.730469 L 780.378906 663.441406 L 774.082031 663.441406 L 774.082031 657.730469 Z M 780.378906 649.335938 L 780.378906 655.046875 L 774.082031 655.046875 L 774.082031 649.335938 Z M 780.378906 640.941406 L 780.378906 646.648438 L 774.082031 646.648438 L 774.082031 640.941406 Z M 780.378906 632.546875 L 780.378906 638.257812 L 774.082031 638.257812 L 774.082031 632.546875 Z M 780.378906 624.148438 L 780.378906 629.863281 L 774.082031 629.863281 L 774.082031 624.148438 Z M 780.378906 615.753906 L 780.378906 621.464844 L 774.082031 621.464844 L 774.082031 615.753906 Z M 780.378906 607.359375 L 780.378906 613.070312 L 774.082031 613.070312 L 774.082031 607.359375 Z M 780.378906 598.964844 L 780.378906 604.675781 L 774.082031 604.675781 L 774.082031 598.964844 Z M 780.378906 590.570312 L 780.378906 596.28125 L 774.082031 596.28125 L 774.082031 590.570312 Z M 780.378906 582.175781 L 780.378906 587.886719 L 774.082031 587.886719 L 774.082031 582.175781 Z M 780.378906 573.78125 L 780.378906 579.488281 L 774.082031 579.488281 L 774.082031 573.78125 Z M 780.378906 565.382812 L 780.378906 571.09375 L 774.082031 571.09375 L 774.082031 565.382812 Z M 780.378906 556.988281 L 780.378906 562.703125 L 774.082031 562.703125 L 774.082031 556.988281 Z M 780.378906 548.59375 L 780.378906 554.304688 L 774.082031 554.304688 L 774.082031 548.59375 Z M 780.378906 540.203125 L 780.378906 545.914062 L 774.082031 545.914062 L 774.082031 540.203125 Z M 780.378906 531.804688 L 780.378906 537.519531 L 774.082031 537.519531 L 774.082031 531.804688 Z M 780.378906 523.414062 L 780.378906 529.121094 L 774.082031 529.121094 L 774.082031 523.414062 Z M 780.378906 515.019531 L 780.378906 520.726562 L 774.082031 520.726562 L 774.082031 515.019531 Z M 778.242188 506.617188 C 778.964844 507.855469 779.679688 509.121094 780.378906 510.433594 L 780.378906 512.328125 L 774.082031 512.328125 L 774.082031 506.617188 Z M 774.082031 500.0625 C 774.945312 501.304688 775.792969 502.59375 776.628906 503.9375 L 774.082031 503.9375 Z M 771.128906 691.308594 L 771.128906 692.402344 C 769.351562 693.921875 767.601562 695.460938 765.875 697.019531 L 764.832031 697.019531 L 764.832031 691.308594 Z M 771.128906 682.914062 L 771.128906 688.625 L 764.832031 688.625 L 764.832031 682.914062 Z M 771.128906 674.519531 L 771.128906 680.230469 L 764.832031 680.230469 L 764.832031 674.519531 Z M 771.128906 666.125 L 771.128906 671.835938 L 764.832031 671.835938 L 764.832031 666.125 Z M 771.128906 657.730469 L 771.128906 663.441406 L 764.832031 663.441406 L 764.832031 657.730469 Z M 771.128906 649.335938 L 771.128906 655.046875 L 764.832031 655.046875 L 764.832031 649.335938 Z M 771.128906 640.941406 L 771.128906 646.648438 L 764.832031 646.648438 L 764.832031 640.941406 Z M 771.128906 632.546875 L 771.128906 638.257812 L 764.832031 638.257812 L 764.832031 632.546875 Z M 771.128906 624.148438 L 771.128906 629.863281 L 764.832031 629.863281 L 764.832031 624.148438 Z M 771.128906 615.753906 L 771.128906 621.464844 L 764.832031 621.464844 L 764.832031 615.753906 Z M 771.128906 607.359375 L 771.128906 613.070312 L 764.832031 613.070312 L 764.832031 607.359375 Z M 771.128906 598.964844 L 771.128906 604.675781 L 764.832031 604.675781 L 764.832031 598.964844 Z M 771.128906 590.570312 L 771.128906 596.28125 L 764.832031 596.28125 L 764.832031 590.570312 Z M 771.128906 582.175781 L 771.128906 587.886719 L 764.832031 587.886719 L 764.832031 582.175781 Z M 771.128906 573.78125 L 771.128906 579.488281 L 764.832031 579.488281 L 764.832031 573.78125 Z M 771.128906 565.382812 L 771.128906 571.09375 L 764.832031 571.09375 L 764.832031 565.382812 Z M 771.128906 556.988281 L 771.128906 562.703125 L 764.832031 562.703125 L 764.832031 556.988281 Z M 771.128906 548.59375 L 771.128906 554.304688 L 764.832031 554.304688 L 764.832031 548.59375 Z M 771.128906 540.203125 L 771.128906 545.914062 L 764.832031 545.914062 L 764.832031 540.203125 Z M 771.128906 531.804688 L 771.128906 537.519531 L 764.832031 537.519531 L 764.832031 531.804688 Z M 771.128906 523.414062 L 771.128906 529.121094 L 764.832031 529.121094 L 764.832031 523.414062 Z M 771.128906 515.019531 L 771.128906 520.726562 L 764.832031 520.726562 L 764.832031 515.019531 Z M 771.128906 506.617188 L 771.128906 512.328125 L 764.832031 512.328125 L 764.832031 506.617188 Z M 771.128906 498.222656 L 771.128906 503.933594 L 764.832031 503.933594 L 764.832031 498.222656 Z M 765.558594 489.828125 C 767.3125 491.53125 769.035156 493.433594 770.722656 495.542969 L 764.832031 495.542969 L 764.832031 489.828125 Z M 761.871094 699.707031 L 761.871094 700.707031 C 760.609375 701.886719 759.359375 703.078125 758.132812 704.285156 L 756.988281 705.417969 L 755.578125 705.417969 L 755.578125 699.707031 Z M 761.871094 691.308594 L 761.871094 697.019531 L 755.578125 697.019531 L 755.578125 691.308594 Z M 761.871094 682.914062 L 761.871094 688.625 L 755.578125 688.625 L 755.578125 682.914062 Z M 761.871094 674.519531 L 761.871094 680.230469 L 755.578125 680.230469 L 755.578125 674.519531 Z M 761.871094 666.125 L 761.871094 671.835938 L 755.578125 671.835938 L 755.578125 666.125 Z M 761.871094 657.730469 L 761.871094 663.441406 L 755.578125 663.441406 L 755.578125 657.730469 Z M 761.871094 649.335938 L 761.871094 655.046875 L 755.578125 655.046875 L 755.578125 649.335938 Z M 761.871094 640.941406 L 761.871094 646.648438 L 755.578125 646.648438 L 755.578125 640.941406 Z M 761.871094 632.546875 L 761.871094 638.257812 L 755.578125 638.257812 L 755.578125 632.546875 Z M 761.871094 624.148438 L 761.871094 629.863281 L 755.578125 629.863281 L 755.578125 624.148438 Z M 761.871094 615.753906 L 761.871094 621.464844 L 755.578125 621.464844 L 755.578125 615.753906 Z M 761.871094 607.359375 L 761.871094 613.070312 L 755.578125 613.070312 L 755.578125 607.359375 Z M 761.871094 598.964844 L 761.871094 604.675781 L 755.578125 604.675781 L 755.578125 598.964844 Z M 761.871094 590.570312 L 761.871094 596.28125 L 755.578125 596.28125 L 755.578125 590.570312 Z M 761.871094 582.175781 L 761.871094 587.886719 L 755.578125 587.886719 L 755.578125 582.175781 Z M 761.871094 573.78125 L 761.871094 579.488281 L 755.578125 579.488281 L 755.578125 573.78125 Z M 761.871094 565.382812 L 761.871094 571.09375 L 755.578125 571.09375 L 755.578125 565.382812 Z M 761.871094 556.988281 L 761.871094 562.703125 L 755.578125 562.703125 L 755.578125 556.988281 Z M 761.871094 548.59375 L 761.871094 554.304688 L 755.578125 554.304688 L 755.578125 548.59375 Z M 761.871094 540.203125 L 761.871094 545.914062 L 755.578125 545.914062 L 755.578125 540.203125 Z M 761.871094 531.804688 L 761.871094 537.519531 L 755.578125 537.519531 L 755.578125 531.804688 Z M 761.871094 523.414062 L 761.871094 529.121094 L 755.578125 529.121094 L 755.578125 523.414062 Z M 761.871094 515.019531 L 761.871094 520.726562 L 755.578125 520.726562 L 755.578125 515.019531 Z M 761.871094 506.617188 L 761.871094 512.328125 L 755.578125 512.328125 L 755.578125 506.617188 Z M 761.871094 498.222656 L 761.871094 503.933594 L 755.578125 503.933594 L 755.578125 498.222656 Z M 761.871094 489.828125 L 761.871094 495.542969 L 755.578125 495.542969 L 755.578125 489.828125 Z M 755.578125 482.652344 C 757.710938 483.675781 759.8125 484.992188 761.871094 486.605469 L 761.871094 487.144531 L 755.578125 487.144531 Z M 746.324219 716.726562 L 746.324219 716.492188 L 746.53125 716.492188 Z M 752.621094 708.097656 L 752.621094 709.863281 C 751.371094 711.171875 750.144531 712.484375 748.941406 713.808594 L 746.324219 713.808594 L 746.324219 708.097656 Z M 752.621094 699.707031 L 752.621094 705.414062 L 746.324219 705.414062 L 746.324219 699.707031 Z M 752.621094 691.308594 L 752.621094 697.019531 L 746.324219 697.019531 L 746.324219 691.308594 Z M 752.621094 682.914062 L 752.621094 688.625 L 746.324219 688.625 L 746.324219 682.914062 Z M 752.621094 674.519531 L 752.621094 680.230469 L 746.324219 680.230469 L 746.324219 674.519531 Z M 752.621094 666.125 L 752.621094 671.835938 L 746.324219 671.835938 L 746.324219 666.125 Z M 752.621094 657.730469 L 752.621094 663.441406 L 746.324219 663.441406 L 746.324219 657.730469 Z M 752.621094 649.335938 L 752.621094 655.046875 L 746.324219 655.046875 L 746.324219 649.335938 Z M 752.621094 640.941406 L 752.621094 646.648438 L 746.324219 646.648438 L 746.324219 640.941406 Z M 752.621094 632.546875 L 752.621094 638.257812 L 746.324219 638.257812 L 746.324219 632.546875 Z M 752.621094 624.148438 L 752.621094 629.863281 L 746.324219 629.863281 L 746.324219 624.148438 Z M 752.621094 615.753906 L 752.621094 621.464844 L 746.324219 621.464844 L 746.324219 615.753906 Z M 752.621094 607.359375 L 752.621094 613.070312 L 746.324219 613.070312 L 746.324219 607.359375 Z M 752.621094 598.964844 L 752.621094 604.675781 L 746.324219 604.675781 L 746.324219 598.964844 Z M 752.621094 590.570312 L 752.621094 596.28125 L 746.324219 596.28125 L 746.324219 590.570312 Z M 752.621094 582.175781 L 752.621094 587.886719 L 746.324219 587.886719 L 746.324219 582.175781 Z M 752.621094 573.78125 L 752.621094 579.488281 L 746.324219 579.488281 L 746.324219 573.78125 Z M 752.621094 565.382812 L 752.621094 571.09375 L 746.324219 571.09375 L 746.324219 565.382812 Z M 752.621094 556.988281 L 752.621094 562.703125 L 746.324219 562.703125 L 746.324219 556.988281 Z M 752.621094 548.59375 L 752.621094 554.304688 L 746.324219 554.304688 L 746.324219 548.59375 Z M 752.621094 540.203125 L 752.621094 545.914062 L 746.324219 545.914062 L 746.324219 540.203125 Z M 752.621094 531.804688 L 752.621094 537.519531 L 746.324219 537.519531 L 746.324219 531.804688 Z M 752.621094 523.414062 L 752.621094 529.121094 L 746.324219 529.121094 L 746.324219 523.414062 Z M 752.621094 515.019531 L 752.621094 520.726562 L 746.324219 520.726562 L 746.324219 515.019531 Z M 752.621094 506.617188 L 752.621094 512.328125 L 746.324219 512.328125 L 746.324219 506.617188 Z M 752.621094 498.222656 L 752.621094 503.933594 L 746.324219 503.933594 L 746.324219 498.222656 Z M 752.621094 489.828125 L 752.621094 495.542969 L 746.324219 495.542969 L 746.324219 489.828125 Z M 746.324219 480.144531 C 748.453125 480.285156 750.550781 480.722656 752.621094 481.4375 L 752.621094 487.144531 L 746.324219 487.144531 Z M 746.324219 480.144531 " fill-opacity="1" fill-rule="evenodd"/><g fill="#13800f" fill-opacity="1"><g transform="translate(579.805248, 1008.280789)"><g><path d="M 39.90625 -23.609375 L 17.0625 -23.609375 L 17.0625 0 L 5.15625 0 L 5.15625 -57.765625 L 42.765625 -57.765625 L 42.765625 -48.125 L 17.0625 -48.125 L 17.0625 -33.203125 L 39.90625 -33.203125 Z M 39.90625 -23.609375 "/></g></g></g><g fill="#13800f" fill-opacity="1"><g transform="translate(616.698387, 1008.280789)"><g><path d="M 37.765625 -11.90625 L 16.90625 -11.90625 L 12.9375 0 L 0.28125 0 L 21.78125 -57.765625 L 32.8125 -57.765625 L 54.4375 0 L 41.78125 0 Z M 20.109375 -21.546875 L 34.5625 -21.546875 L 27.296875 -43.171875 Z M 20.109375 -21.546875 "/></g></g></g><g fill="#13800f" fill-opacity="1"><g transform="translate(669.817611, 1008.280789)"><g><path d="M 50.140625 -16.65625 L 57.921875 -57.765625 L 69.78125 -57.765625 L 56.96875 0 L 44.984375 0 L 35.59375 -38.640625 L 26.1875 0 L 14.203125 0 L 1.390625 -57.765625 L 13.25 -57.765625 L 21.0625 -16.734375 L 30.59375 -57.765625 L 40.671875 -57.765625 Z M 50.140625 -16.65625 "/></g></g></g><g fill="#13800f" fill-opacity="1"><g transform="translate(740.868272, 1008.280789)"><g><path d="M 50.5 -19.234375 C 50.050781 -13.023438 47.753906 -8.132812 43.609375 -4.5625 C 39.472656 -0.988281 34.019531 0.796875 27.25 0.796875 C 19.84375 0.796875 14.015625 -1.691406 9.765625 -6.671875 C 5.523438 -11.660156 3.40625 -18.507812 3.40625 -27.21875 L 3.40625 -30.75 C 3.40625 -36.300781 4.382812 -41.191406 6.34375 -45.421875 C 8.300781 -49.648438 11.097656 -52.894531 14.734375 -55.15625 C 18.367188 -57.425781 22.59375 -58.5625 27.40625 -58.5625 C 34.070312 -58.5625 39.441406 -56.773438 43.515625 -53.203125 C 47.585938 -49.628906 49.941406 -44.617188 50.578125 -38.171875 L 38.6875 -38.171875 C 38.394531 -41.898438 37.351562 -44.601562 35.5625 -46.28125 C 33.78125 -47.957031 31.0625 -48.796875 27.40625 -48.796875 C 23.445312 -48.796875 20.476562 -47.375 18.5 -44.53125 C 16.53125 -41.6875 15.519531 -37.273438 15.46875 -31.296875 L 15.46875 -26.9375 C 15.46875 -20.695312 16.410156 -16.132812 18.296875 -13.25 C 20.191406 -10.363281 23.175781 -8.921875 27.25 -8.921875 C 30.925781 -8.921875 33.671875 -9.757812 35.484375 -11.4375 C 37.296875 -13.125 38.335938 -15.722656 38.609375 -19.234375 Z M 50.5 -19.234375 "/></g></g></g><g fill="#13800f" fill-opacity="1"><g transform="translate(794.027321, 1008.280789)"><g><path d="M 15.59375 -38.25 C 18.632812 -41.894531 22.457031 -43.71875 27.0625 -43.71875 C 36.363281 -43.71875 41.082031 -38.3125 41.21875 -27.5 L 41.21875 0 L 29.75 0 L 29.75 -27.171875 C 29.75 -29.628906 29.21875 -31.445312 28.15625 -32.625 C 27.101562 -33.800781 25.347656 -34.390625 22.890625 -34.390625 C 19.535156 -34.390625 17.101562 -33.097656 15.59375 -30.515625 L 15.59375 0 L 4.125 0 L 4.125 -60.9375 L 15.59375 -60.9375 Z M 15.59375 -38.25 "/></g></g></g><g fill="#13800f" fill-opacity="1"><g transform="translate(839.49023, 1008.280789)"><g><path d="M 24.15625 0.796875 C 17.863281 0.796875 12.738281 -1.132812 8.78125 -5 C 4.832031 -8.863281 2.859375 -14.007812 2.859375 -20.4375 L 2.859375 -21.546875 C 2.859375 -25.859375 3.691406 -29.710938 5.359375 -33.109375 C 7.023438 -36.503906 9.382812 -39.117188 12.4375 -40.953125 C 15.488281 -42.796875 18.972656 -43.71875 22.890625 -43.71875 C 28.765625 -43.71875 33.382812 -41.863281 36.75 -38.15625 C 40.125 -34.457031 41.8125 -29.210938 41.8125 -22.421875 L 41.8125 -17.734375 L 14.484375 -17.734375 C 14.847656 -14.929688 15.960938 -12.679688 17.828125 -10.984375 C 19.691406 -9.296875 22.054688 -8.453125 24.921875 -8.453125 C 29.335938 -8.453125 32.785156 -10.050781 35.265625 -13.25 L 40.90625 -6.9375 C 39.1875 -4.507812 36.859375 -2.613281 33.921875 -1.25 C 30.984375 0.113281 27.726562 0.796875 24.15625 0.796875 Z M 22.859375 -34.4375 C 20.578125 -34.4375 18.726562 -33.664062 17.3125 -32.125 C 15.894531 -30.59375 14.988281 -28.398438 14.59375 -25.546875 L 30.546875 -25.546875 L 30.546875 -26.46875 C 30.492188 -29 29.804688 -30.957031 28.484375 -32.34375 C 27.160156 -33.738281 25.285156 -34.4375 22.859375 -34.4375 Z M 22.859375 -34.4375 "/></g></g></g><g fill="#13800f" fill-opacity="1"><g transform="translate(883.405967, 1008.280789)"><g><path d="M 22.25 -8.453125 C 24.375 -8.453125 26.09375 -9.03125 27.40625 -10.1875 C 28.726562 -11.351562 29.421875 -12.90625 29.484375 -14.84375 L 40.234375 -14.84375 C 40.203125 -11.925781 39.40625 -9.257812 37.84375 -6.84375 C 36.28125 -4.425781 34.144531 -2.546875 31.4375 -1.203125 C 28.726562 0.128906 25.734375 0.796875 22.453125 0.796875 C 16.316406 0.796875 11.476562 -1.148438 7.9375 -5.046875 C 4.394531 -8.953125 2.625 -14.34375 2.625 -21.21875 L 2.625 -21.984375 C 2.625 -28.585938 4.378906 -33.859375 7.890625 -37.796875 C 11.410156 -41.742188 16.238281 -43.71875 22.375 -43.71875 C 27.738281 -43.71875 32.039062 -42.191406 35.28125 -39.140625 C 38.53125 -36.085938 40.179688 -32.019531 40.234375 -26.9375 L 29.484375 -26.9375 C 29.421875 -29.15625 28.726562 -30.957031 27.40625 -32.34375 C 26.09375 -33.738281 24.347656 -34.4375 22.171875 -34.4375 C 19.503906 -34.4375 17.488281 -33.460938 16.125 -31.515625 C 14.757812 -29.578125 14.078125 -26.425781 14.078125 -22.0625 L 14.078125 -20.875 C 14.078125 -16.457031 14.75 -13.28125 16.09375 -11.34375 C 17.445312 -9.414062 19.5 -8.453125 22.25 -8.453125 Z M 22.25 -8.453125 "/></g></g></g><g fill="#13800f" fill-opacity="1"><g transform="translate(925.774532, 1008.280789)"><g><path d="M 20 -17.21875 L 15.875 -13.09375 L 15.875 0 L 4.40625 0 L 4.40625 -60.9375 L 15.875 -60.9375 L 15.875 -27.171875 L 18.09375 -30.03125 L 29.078125 -42.921875 L 42.84375 -42.921875 L 27.328125 -25.03125 L 44.203125 0 L 31.03125 0 Z M 20 -17.21875 "/></g></g></g></svg>